<svg xmlns="http://www.w3.org/2000/svg" width="1200" height="780" viewBox="0 0 1200 780">
<style>text{font-family:Arial,sans-serif;fill:#1f2937} .small{font-size:11px} .axis{stroke:#9ca3af;stroke-width:1}</style>
<rect x="0" y="0" width="1200" height="780" fill="white"/>
<text x="260" y="45" font-size="26" font-weight="700">Sentiment Composition by Top Locations</text>
<rect x="260.0" y="97.8" width="272.0" height="36.2" fill="#d62728"/>
<rect x="532.0" y="97.8" width="364.7" height="36.2" fill="#8b0000"/>
<rect x="896.7" y="97.8" width="80.5" height="36.2" fill="#7f7f7f"/>
<rect x="977.2" y="97.8" width="132.8" height="36.2" fill="#2ca02c"/>
<text class="small" x="250" y="123.8" text-anchor="end">Dhaka</text>
<rect x="260.0" y="149.4" width="269.8" height="36.2" fill="#d62728"/>
<rect x="529.8" y="149.4" width="377.0" height="36.2" fill="#8b0000"/>
<rect x="906.8" y="149.4" width="62.1" height="36.2" fill="#7f7f7f"/>
<rect x="968.9" y="149.4" width="141.1" height="36.2" fill="#2ca02c"/>
<text class="small" x="250" y="175.5" text-anchor="end">Chattogram</text>
<rect x="260.0" y="201.1" width="272.4" height="36.2" fill="#d62728"/>
<rect x="532.4" y="201.1" width="403.2" height="36.2" fill="#8b0000"/>
<rect x="935.6" y="201.1" width="57.2" height="36.2" fill="#7f7f7f"/>
<rect x="992.9" y="201.1" width="117.1" height="36.2" fill="#2ca02c"/>
<text class="small" x="250" y="227.1" text-anchor="end">Barishal</text>
<rect x="260.0" y="252.8" width="247.3" height="36.2" fill="#d62728"/>
<rect x="507.3" y="252.8" width="406.5" height="36.2" fill="#8b0000"/>
<rect x="913.8" y="252.8" width="79.6" height="36.2" fill="#7f7f7f"/>
<rect x="993.4" y="252.8" width="116.6" height="36.2" fill="#2ca02c"/>
<text class="small" x="250" y="278.8" text-anchor="end">Khulna</text>
<rect x="260.0" y="304.4" width="300.0" height="36.2" fill="#d62728"/>
<rect x="560.0" y="304.4" width="382.1" height="36.2" fill="#8b0000"/>
<rect x="942.1" y="304.4" width="75.0" height="36.2" fill="#7f7f7f"/>
<rect x="1017.1" y="304.4" width="92.9" height="36.2" fill="#2ca02c"/>
<text class="small" x="250" y="330.5" text-anchor="end">Sylhet</text>
<rect x="260.0" y="356.1" width="293.1" height="36.2" fill="#d62728"/>
<rect x="553.1" y="356.1" width="368.5" height="36.2" fill="#8b0000"/>
<rect x="921.6" y="356.1" width="50.2" height="36.2" fill="#7f7f7f"/>
<rect x="971.8" y="356.1" width="138.2" height="36.2" fill="#2ca02c"/>
<text class="small" x="250" y="382.1" text-anchor="end">Cumilla</text>
<rect x="260.0" y="407.8" width="324.0" height="36.2" fill="#d62728"/>
<rect x="584.0" y="407.8" width="378.7" height="36.2" fill="#8b0000"/>
<rect x="962.7" y="407.8" width="42.1" height="36.2" fill="#7f7f7f"/>
<rect x="1004.8" y="407.8" width="105.2" height="36.2" fill="#2ca02c"/>
<text class="small" x="250" y="433.8" text-anchor="end">Gazipur</text>
<rect x="260.0" y="459.4" width="250.0" height="36.2" fill="#d62728"/>
<rect x="510.0" y="459.4" width="380.0" height="36.2" fill="#8b0000"/>
<rect x="890.0" y="459.4" width="110.0" height="36.2" fill="#7f7f7f"/>
<rect x="1000.0" y="459.4" width="110.0" height="36.2" fill="#2ca02c"/>
<text class="small" x="250" y="485.5" text-anchor="end">Rangpur</text>
<rect x="260.0" y="511.1" width="278.0" height="36.2" fill="#d62728"/>
<rect x="538.0" y="511.1" width="379.6" height="36.2" fill="#8b0000"/>
<rect x="917.5" y="511.1" width="58.8" height="36.2" fill="#7f7f7f"/>
<rect x="976.4" y="511.1" width="133.6" height="36.2" fill="#2ca02c"/>
<text class="small" x="250" y="537.1" text-anchor="end">Mymensingh</text>
<rect x="260.0" y="562.8" width="277.0" height="36.2" fill="#d62728"/>
<rect x="537.0" y="562.8" width="295.9" height="36.2" fill="#8b0000"/>
<rect x="833.0" y="562.8" width="69.3" height="36.2" fill="#7f7f7f"/>
<rect x="902.2" y="562.8" width="207.8" height="36.2" fill="#2ca02c"/>
<text class="small" x="250" y="588.8" text-anchor="end">Rajshahi</text>
<rect x="260.0" y="614.4" width="285.4" height="36.2" fill="#d62728"/>
<rect x="545.4" y="614.4" width="340.0" height="36.2" fill="#8b0000"/>
<rect x="885.4" y="614.4" width="66.8" height="36.2" fill="#7f7f7f"/>
<rect x="952.1" y="614.4" width="157.9" height="36.2" fill="#2ca02c"/>
<text class="small" x="250" y="640.5" text-anchor="end">Noakhali</text>
<rect x="260.0" y="666.1" width="255.0" height="36.2" fill="#d62728"/>
<rect x="515.0" y="666.1" width="340.0" height="36.2" fill="#8b0000"/>
<rect x="855.0" y="666.1" width="110.5" height="36.2" fill="#7f7f7f"/>
<rect x="965.5" y="666.1" width="144.5" height="36.2" fill="#2ca02c"/>
<text class="small" x="250" y="692.1" text-anchor="end">Bogura</text>
<rect x="920" y="35" width="12" height="12" fill="#d62728"/>
<text class="small" x="938" y="45">negative</text>
<rect x="920" y="55" width="12" height="12" fill="#8b0000"/>
<text class="small" x="938" y="65">sarcastic_negative</text>
<rect x="920" y="75" width="12" height="12" fill="#7f7f7f"/>
<text class="small" x="938" y="85">neutral</text>
<rect x="920" y="95" width="12" height="12" fill="#2ca02c"/>
<text class="small" x="938" y="105">positive</text>
</svg>