<svg xmlns="http://www.w3.org/2000/svg" width="1200" height="820" viewBox="0 0 1200 820">
<style>text{font-family:Arial,sans-serif;fill:#1f2937} .small{font-size:11px} .axis{stroke:#9ca3af;stroke-width:1}</style>
<rect x="0" y="0" width="1200" height="820" fill="white"/>
<text x="280" y="45" font-size="26" font-weight="700">Largest Mention Changes (Period B - Period A)</text>
<line class="axis" x1="700.0" y1="85" x2="700.0" y2="750" stroke="#374151"/>
<rect x="280.0" y="89.2" width="420.0" height="26.2" fill="#d62728" opacity="0.88"/>
<text class="small" x="270" y="108.1" text-anchor="end">Dhaka</text>
<text class="small" x="272.0" y="108.1" text-anchor="end">-5010</text>
<rect x="585.1" y="124.2" width="114.9" height="26.2" fill="#d62728" opacity="0.88"/>
<text class="small" x="270" y="143.1" text-anchor="end">Chattogram</text>
<text class="small" x="577.1" y="143.1" text-anchor="end">-1370</text>
<rect x="648.0" y="159.2" width="52.0" height="26.2" fill="#d62728" opacity="0.88"/>
<text class="small" x="270" y="178.1" text-anchor="end">Sylhet</text>
<text class="small" x="640.0" y="178.1" text-anchor="end">-620</text>
<rect x="657.7" y="194.2" width="42.3" height="26.2" fill="#d62728" opacity="0.88"/>
<text class="small" x="270" y="213.1" text-anchor="end">Barishal</text>
<text class="small" x="649.7" y="213.1" text-anchor="end">-505</text>
<rect x="664.4" y="229.2" width="35.6" height="26.2" fill="#d62728" opacity="0.88"/>
<text class="small" x="270" y="248.1" text-anchor="end">Cumilla</text>
<text class="small" x="656.4" y="248.1" text-anchor="end">-425</text>
<rect x="673.2" y="264.2" width="26.8" height="26.2" fill="#d62728" opacity="0.88"/>
<text class="small" x="270" y="283.1" text-anchor="end">Gazipur</text>
<text class="small" x="665.2" y="283.1" text-anchor="end">-320</text>
<rect x="674.9" y="299.2" width="25.1" height="26.2" fill="#d62728" opacity="0.88"/>
<text class="small" x="270" y="318.1" text-anchor="end">Rangpur</text>
<text class="small" x="666.9" y="318.1" text-anchor="end">-300</text>
<rect x="674.9" y="334.2" width="25.1" height="26.2" fill="#d62728" opacity="0.88"/>
<text class="small" x="270" y="353.1" text-anchor="end">Khulna</text>
<text class="small" x="666.9" y="353.1" text-anchor="end">-300</text>
<rect x="682.4" y="369.2" width="17.6" height="26.2" fill="#d62728" opacity="0.88"/>
<text class="small" x="270" y="388.1" text-anchor="end">Rajshahi</text>
<text class="small" x="674.4" y="388.1" text-anchor="end">-210</text>
<rect x="684.5" y="404.2" width="15.5" height="26.2" fill="#d62728" opacity="0.88"/>
<text class="small" x="270" y="423.1" text-anchor="end">Chandpur</text>
<text class="small" x="676.5" y="423.1" text-anchor="end">-185</text>
<rect x="699.6" y="439.2" width="0.4" height="26.2" fill="#d62728" opacity="0.88"/>
<text class="small" x="270" y="458.1" text-anchor="end">MunশIganj</text>
<text class="small" x="691.6" y="458.1" text-anchor="end">-5</text>
<rect x="699.6" y="474.2" width="0.4" height="26.2" fill="#d62728" opacity="0.88"/>
<text class="small" x="270" y="493.1" text-anchor="end">Munshiganj</text>
<text class="small" x="691.6" y="493.1" text-anchor="end">-5</text>
<rect x="699.6" y="509.2" width="0.4" height="26.2" fill="#d62728" opacity="0.88"/>
<text class="small" x="270" y="528.1" text-anchor="end">Manikganj</text>
<text class="small" x="691.6" y="528.1" text-anchor="end">-5</text>
<rect x="700.0" y="544.2" width="0.4" height="26.2" fill="#2ca02c" opacity="0.88"/>
<text class="small" x="270" y="563.1" text-anchor="end">Jhalokati</text>
<text class="small" x="708.4" y="563.1" text-anchor="start">5</text>
<rect x="700.0" y="579.2" width="0.4" height="26.2" fill="#2ca02c" opacity="0.88"/>
<text class="small" x="270" y="598.1" text-anchor="end">Natore</text>
<text class="small" x="708.4" y="598.1" text-anchor="start">5</text>
<rect x="700.0" y="614.2" width="0.4" height="26.2" fill="#2ca02c" opacity="0.88"/>
<text class="small" x="270" y="633.1" text-anchor="end">Chuadanga</text>
<text class="small" x="708.4" y="633.1" text-anchor="start">5</text>
<rect x="700.0" y="649.2" width="1.3" height="26.2" fill="#2ca02c" opacity="0.88"/>
<text class="small" x="270" y="668.1" text-anchor="end">Jhenaidah</text>
<text class="small" x="709.3" y="668.1" text-anchor="start">15</text>
<rect x="700.0" y="684.2" width="1.3" height="26.2" fill="#2ca02c" opacity="0.88"/>
<text class="small" x="270" y="703.1" text-anchor="end">Jessore</text>
<text class="small" x="709.3" y="703.1" text-anchor="start">15</text>
<rect x="700.0" y="719.2" width="1.3" height="26.2" fill="#2ca02c" opacity="0.88"/>
<text class="small" x="270" y="738.1" text-anchor="end">Sirajganj</text>
<text class="small" x="709.3" y="738.1" text-anchor="start">15</text>
</svg>